<svg xmlns="http://www.w3.org/2000/svg" viewBox="0 0 165 180.05"><defs><style>.cls-1{fill:#923f1b;}.cls-1,.cls-2,.cls-3,.cls-4,.cls-5,.cls-6,.cls-7,.cls-8{fill-rule:evenodd;}.cls-2{fill:#88ae27;}.cls-3{fill:#066c34;}.cls-4{fill:#009481;}.cls-5{fill:#8cb026;}.cls-6{fill:#00907c;}.cls-7{fill:#3bac9f;}.cls-8{fill:#98b221;}.cls-11,.cls-9{font-size:16.97px;font-family:Danley;}.cls-10{letter-spacing:-0.08em;}.cls-11{fill:#960000;}.cls-12{fill:#00767f;letter-spacing:0em;}.cls-13{fill:#0c6802;}.cls-14{fill:#899300;}</style></defs><g id="Capa_2" data-name="Capa 2"><g id="Capa_1-2" data-name="Capa 1"><path class="cls-1" d="M85.4,145.32s12.09,1.47,12.26-1.33c.13-3.87-2.08-23-1.22-25.6a5.42,5.42,0,0,1,1.27-2.07,13.07,13.07,0,0,1,3.38-2.18,42.46,42.46,0,0,0,3.93-2.07c2.36-1.46,2.25-1.32,3.47-3.28l1-1.32a26.3,26.3,0,0,0,2.9-4.32,26.13,26.13,0,0,0,1-6.22,6,6,0,0,0-.48-3.18c-.75-1.23-2.07-1-2.73.32a9.11,9.11,0,0,0-.43,1.31c-.11.49-.1.88-.19,1.31,0,.27,0,.4,0,.71a7.46,7.46,0,0,1-.38,2.65,18.44,18.44,0,0,1-2.21,3.37c-1.31,2-3.16,3.93-5.74,3.8a10.59,10.59,0,0,1,2.43-2.94c.88-.74,1.36-.72,2-1.78a2.67,2.67,0,0,0,.41-1.91,1.4,1.4,0,0,0-.64-1.07c-1.58-1-3.06.54-4.19,1.54l-1.06.94-.62.54-.62.52-.35.27-.37.28c-1.71,1.34-4.29,2.2-6.27,3.54a8.15,8.15,0,0,0-3.27,3.8,33.55,33.55,0,0,0-1.41,8.84C87.2,121.2,85.1,144.86,85.4,145.32Z"/><path class="cls-1" d="M83.9,145.32S71.8,146.79,71.64,144c-.13-3.87,2.08-23,1.22-25.6a5.42,5.42,0,0,0-1.27-2.07,13.25,13.25,0,0,0-3.38-2.18,42.46,42.46,0,0,1-3.93-2.07c-2.36-1.46-2.25-1.32-3.47-3.28l-1-1.32a25.68,25.68,0,0,1-2.9-4.32,26.13,26.13,0,0,1-1-6.22,5.91,5.91,0,0,1,.48-3.18c.75-1.23,2.07-1,2.72.32a9.17,9.17,0,0,1,.44,1.31c.11.49.1.88.19,1.31,0,.27,0,.4,0,.71a7.69,7.69,0,0,0,.37,2.65,19,19,0,0,0,2.22,3.37c1.31,2,3.16,3.93,5.74,3.8a10.59,10.59,0,0,0-2.43-2.94c-.88-.74-1.36-.72-2-1.78a2.67,2.67,0,0,1-.41-1.91,1.37,1.37,0,0,1,.64-1.07c1.58-1,3.06.54,4.19,1.54l1.06.94.61.54.63.52.34.27.38.28c1.71,1.34,4.29,2.2,6.27,3.54a8.15,8.15,0,0,1,3.27,3.8,33.55,33.55,0,0,1,1.41,8.84C82.1,121.2,84.2,144.86,83.9,145.32Z"/><path class="cls-1" d="M75.5,100.5a69.84,69.84,0,0,1,5.61-5,8.1,8.1,0,0,0,3.25-6.26,23.63,23.63,0,0,0-.23-5,17.67,17.67,0,0,1,0-4.11l0-.51c0-1.77-.66-4.53-3.13-3.78-.34,1.32-.64,2.29-.88,3.58-.18,1-.4,2.16-.42,2.56,0,.88-.07,1.89-.15,2.31-.54-2.69-.88-3.28,0-6.34S82,70.8,82.21,70.07c.67-2.14,1.49-4.33,2-6.28.25-1,.64-2.64-.49-3.23a1.26,1.26,0,0,0-1-.09,6,6,0,0,0-1.31,1.7c-.34.54-.72,1.17-1.13,1.84-1.86,3.14-4.07,7.22-4.13,7.31-.56,1-1.14,1.91-1.59,2.82a10.51,10.51,0,0,0-.67,2.09c-.46,1.89-.86,4.3-1.16,5.31-1,3.33-2.37,7.14-2.51,9.07a2.21,2.21,0,0,1-1,1.73c-.35.31-1,.86-1.55,1.4-1,1-1.22,1.56-.38,2.73A48,48,0,0,0,71.46,101C73.47,103,73.91,102.09,75.5,100.5Z"/><path class="cls-1" d="M96.09,99.13a73.84,73.84,0,0,0-5.61-5.06,8.08,8.08,0,0,1-3.26-6.25,23.61,23.61,0,0,1,.24-5,18.85,18.85,0,0,0,0-4.11v-.51c0-1.78.67-4.53,3.14-3.78.34,1.31.63,2.29.87,3.57.19,1,.41,2.16.43,2.57,0,.88.07,1.89.15,2.31.53-2.69.88-3.28,0-6.35s-2.45-7.12-2.68-7.86c-.67-2.14-1.49-4.32-2-6.28-.26-1-.65-2.63.48-3.22a1.22,1.22,0,0,1,1-.09,6,6,0,0,1,1.31,1.7c.34.53.73,1.16,1.13,1.84,1.86,3.13,4.08,7.22,4.14,7.31.56,1,1.13,1.91,1.59,2.82a11,11,0,0,1,.67,2.09c.46,1.89.85,4.29,1.15,5.3,1,3.34,2.37,7.15,2.51,9.08a2.23,2.23,0,0,0,1,1.73c.36.31,1,.86,1.55,1.4,1,1,1.23,1.56.38,2.72a48,48,0,0,1-4.14,4.53C98.12,101.59,97.68,100.72,96.09,99.13Z"/><path class="cls-1" d="M99.94,145.46s8.06,1,8.17-.89c.09-2.58-1.39-17.68-.81-19.44a3.54,3.54,0,0,1,.84-1.38,8.84,8.84,0,0,1,2.25-1.45,28.69,28.69,0,0,0,2.62-1.38c1.57-1,1.5-.88,2.31-2.18l.64-.88a17.45,17.45,0,0,0,1.93-2.88,17.59,17.59,0,0,0,.67-4.15,4.22,4.22,0,0,0-.32-2.12c-.51-.82-1.39-.65-1.82.22a5.8,5.8,0,0,0-.29.86c-.08.33-.07.6-.13.88s0,.27,0,.49a4.91,4.91,0,0,1-.25,1.75,12.48,12.48,0,0,1-1.48,2.25c-.87,1.31-2.1,2.62-3.82,2.53a7,7,0,0,1,1.62-2c.58-.5.91-.49,1.35-1.2a1.72,1.72,0,0,0,.27-1.26.92.92,0,0,0-.42-.72c-1.06-.66-2,.36-2.79,1l-.71.62-.41.37-.42.34-.23.18-.25.19c-1.14.9-2.86,1.46-4.17,2.35a5.49,5.49,0,0,0-2.18,2.53,22.25,22.25,0,0,0-.94,5.89C101.14,127,99.74,145.14,99.94,145.46Z"/><path class="cls-1" d="M68.43,145.46s-8.06,1-8.17-.89c-.09-2.58,1.39-17.68.81-19.44a3.67,3.67,0,0,0-.84-1.38A8.73,8.73,0,0,0,58,122.3a28.37,28.37,0,0,1-2.61-1.38c-1.58-1-1.5-.88-2.31-2.18l-.64-.88A17.45,17.45,0,0,1,50.48,115a17.59,17.59,0,0,1-.67-4.15,4,4,0,0,1,.32-2.12c.5-.82,1.39-.65,1.82.22a7.25,7.25,0,0,1,.29.86c.08.33.07.6.13.88s0,.27,0,.49a4.91,4.91,0,0,0,.25,1.75,11.49,11.49,0,0,0,1.48,2.25c.87,1.31,2.1,2.62,3.82,2.53a7,7,0,0,0-1.62-2c-.58-.5-.91-.49-1.35-1.2a1.77,1.77,0,0,1-.28-1.26,1,1,0,0,1,.43-.72c1-.66,2,.36,2.79,1l.71.62.41.37.41.34.23.18.25.19c1.14.9,2.86,1.46,4.18,2.35a5.49,5.49,0,0,1,2.18,2.53,22.67,22.67,0,0,1,.94,5.89C67.23,127,68.63,145.14,68.43,145.46Z"/><path class="cls-2" d="M94.52,32.11A19.07,19.07,0,0,0,97.3,44.45c1-1.57,2.24-11.56,5.28-13.26-.45,2.05-1.85,4.1-2.41,6.71a31.7,31.7,0,0,0-.08,8.82c12.83-.78,18.78-22.58,9.52-34.59-1.29,3.23-1.2,3.58-3.69,6C102,21.91,95.33,26.5,94.52,32.11Z"/><path class="cls-2" d="M64.34,44.22c.74-7.57-1.57-13.38-3.73-18.08,4.65,2.22,7.3,8.61,7.06,15.8.74-.79,1.92-4.24,2.3-5.77C73.25,22.76,62.16,21,56.83,12.94a5.1,5.1,0,0,1-1.22-3C43.85,17.77,50.76,39,64.34,44.22Z"/><path class="cls-2" d="M37.32,67.15c-.72-5.55-10.44-12-12.7-11.56,6.14-.35,10.92,4.06,13.85,8.24-.25-9.54-6-13.43-14-14.54-6.84-.94-6-1.3-11.37-3.12C13.23,60,24.18,68.25,37.32,67.15Z"/><path class="cls-2" d="M154.22,43.45c-.8,1.64-6.35,2.32-10.85,2.61-8.21.54-15.12,3.28-14.84,12.47,2.45-2.94,8-7.11,13.43-6.83-4.88,2.63-10.25,3.88-12.7,10.3C136.39,67,155.35,56.6,154.22,43.45Z"/><path class="cls-3" d="M108.74,88c12.37-5.11,16.8-13.46,13.6-26.53-1.94.88-.23,1.54-6.15,4.78a60.26,60.26,0,0,0-6.94,3.85c-6.27,4.64-5.77,13.17-4.2,15.76,1.38-3.84,3-9.89,9.66-12.29,0,1.73-5.68,5.59-7.76,14.92Z"/><path class="cls-4" d="M22.33,122c4.67,1.49,7.2,2.47,12.55,1,4.46-1.22,11-6.8,11.6-11.58-7.32-.61-12.12,4.63-13.66,5.16,1.84-4.52,9.28-6.13,11.63-7.08-1.55-1.08-5-1.69-7.37-1.31C30,109.39,26.63,119.43,22.33,122Z"/><path class="cls-5" d="M123,111.13a25,25,0,0,1,6.3,2.57,15.89,15.89,0,0,1,4.61,4c-2.88-1.8-4.89-5.31-12.88-5.07.39,6.08,9.7,12.24,16.08,12.11,2.59-.06,6.07-.57,7.68-1.88-3.53-2.61-2.68-1.58-5.4-5.68C136.06,112.22,129,105.57,123,111.13Z"/><path class="cls-3" d="M140.3,75.62c3.18-3.45,5.79-4,10.3-4.05-.77.58-8.65,2.56-10,6.94,9.14,3.15,17.14-1.16,20.41-6.8a17.33,17.33,0,0,0,2.14-5.36c-5.62,2.06-8.65-.32-14.07.51C144.63,67.54,141.37,71.41,140.3,75.62Z"/><path class="cls-5" d="M30,94.42c1.51,5,5.65,7.84,10.37,9.14s10,.84,14-2.25c-4.89-2.78-6.15-3.94-15.31-3.12A15.52,15.52,0,0,1,53.64,99c-.84-4.81-7.09-7.27-11.44-6.64S34.59,94.52,30,94.42Z"/><path class="cls-6" d="M103.69,51.91c-3.63,2.58-6.3,6.48-3,12.39.71-4.83,5.39-9.57,7.71-10.58-1.69,3.08-6.33,8.46-6.3,12.66,11.82-2.52,13.58-11.23,12.19-21.53C111.87,48.52,106.68,49.78,103.69,51.91Z"/><path class="cls-6" d="M49.48,46.19C47.94,55.37,55,62.32,62.36,63.72a15.21,15.21,0,0,0-6-11.6c5.11,1.46,6.39,5.71,7.86,9.36.21-7.89,1.16-10.1-6.93-14.2-1.28-.65-6.57-3.66-6.88-4.77,0-.15-.17-.14-.32-.21Z"/><path class="cls-3" d="M79.87,24.38c2.36-6.21,1-10.91.74-12.83,1.86,3.15,1.69,7.83,1.48,12C92.44,16.19,81.46,6.74,79.87,0,73.63,5.33,71.68,19.16,79.87,24.38Z"/><path class="cls-3" d="M119.77,41c2.16-3.75,5.87-5.56,9.48-6.6-2.3,1.94-7.25,2.74-8.46,9.27,13.68-1,17-9.12,15.82-17.41,0,0-11.75,4.55-12,4.67C121.31,32.6,119.33,35.43,119.77,41Z"/><path class="cls-5" d="M141.28,84.54c-5.14,0-13.7-2-17.72,0a12.2,12.2,0,0,0-5.52,7c3.9-2.76,6.29-3.46,8.13-2.57-3,1.18-7.1,2.75-8.11,5.51C127,98.2,140.53,93.27,141.28,84.54Z"/><path class="cls-3" d="M27,93.36c-1.69-2.88-10.37-3.3-12.35-3.37,2.75-1.55,8.63-1.29,11.24.12C25,86.75,21,81.9,11.16,86.45a66.56,66.56,0,0,1-9.44,3.66C5.35,98.5,20.06,99.37,27,93.36Z"/><path class="cls-3" d="M54.94,81.79c-.18-4.57-2.84-9.42-5.28-10.81,4.61-.22,5.74,6.7,7,8.42C58,67.25,52,67.33,42.94,61.17,40.24,70.49,45.17,80,54.94,81.79Z"/><path class="cls-6" d="M126.39,102.31a16.45,16.45,0,0,0-2.14-1.91c-2.7-1.68-5.37-.19-5.76.59,1.78.23,3.52.35,4.47,1.15-1.36-.19-3.84-1-5-.13.48,1.4,2.75,3,4.65,3.46,2.85.63,4.53-.38,6.35-1.46C128,103.38,128.27,104,126.39,102.31Z"/><path class="cls-3" d="M45.84,43.56c-.77-5.56-7.42-9.14-8.31-10.08,5,.91,8.48,6,9.42,7.72,2.13-12.57-12.3-10.57-16.8-15C29.42,36.49,36.32,43.56,45.84,43.56Z"/><path class="cls-3" d="M10.48,74.44c1.6.41,6.77.75,7.49-.72-1.74-3.14-6.31-4.35-9.52-5.16,4.2-1,7.84,1.69,9.72,3.37C15.86,63,8,66.87,2.26,66A11.45,11.45,0,0,0,10.48,74.44Z"/><path class="cls-7" d="M154.25,96.36C150.11,96,150,94.67,146.71,94c-3.65-.7-8,.28-9.22,3.73,4.12-.78,4.13-1.37,8.46-.44-3.89,0-6.28-.14-8.87,2C138.86,104,152.12,102.57,154.25,96.36Z"/><path class="cls-8" d="M0,115.26c5.28,6.58,17.91,1.4,20.54-4.87a63.84,63.84,0,0,0-12,2.11,32,32,0,0,1,11.08-3.57c-2.46-2.41-5.35-2.46-8.3-1.81C7.84,107.86,3.66,112.79,0,115.26Z"/><path class="cls-3" d="M158.44,111.93c-7.47-3-12.61-8.84-20.78-3.42,4.3-.89,7,1.82,12,3.25-4.3-.21-10.24-1.62-12.52-.67,1,2,3.75,3.69,6.61,4.63C149.37,117.57,154.28,116.12,158.44,111.93Z"/><path class="cls-5" d="M42,87.14c1.52-.15.63-.26,1-.58-.59-1.75-7.32-4-10.75-5.06,1.85-.42,7.76.77,10.73,2.81-.81-7.53-10.2-5.59-15.79-5.54A9.29,9.29,0,0,0,29,82.92,11.72,11.72,0,0,0,42,87.14Z"/><path class="cls-5" d="M155.1,88c-1.09-1.67-6.8-.07-8.25,1,.81,1.32,3.14,2.19,4.78,2.59,4.59,1.13,12.1-.75,13.37-5.55a12.25,12.25,0,0,1-5.75-1.61c-3.7-1.78-10.13-1.9-11.75,2.74C150.5,86,153.71,86.09,155.1,88Z"/><path class="cls-6" d="M82.21,37c.4,2,.32,7.41-.23,8.81C86.1,43,87.55,34.57,82,29.9c0,0-4,7.41-4.23,7.94-1.3,2.94.42,6.2,1.77,7.55A18.81,18.81,0,0,0,82.21,37Z"/><path class="cls-5" d="M68.91,49.41c-.1,4.9,2.5,9.31,7.62,10.09,0-3.24-1.71-5-3.32-6.77,2.23,1.1,3.51,4.71,4.29,5.57,2.77-7.23-5.14-8.27-8.2-11.43Z"/><path class="cls-6" d="M60.8,71.23c-.09,4.65,2.37,8.84,7.23,9.57,0-3.07-1.62-4.74-3.15-6.41,2.12,1,3.33,4.46,4.07,5.28,2.62-6.86-4.88-7.85-7.79-10.85Z"/><path class="cls-3" d="M95.5,45.43c.1,4.88-2.49,9.29-7.6,10,0-3.23,1.7-5,3.31-6.74-2.23,1.09-3.5,4.69-4.28,5.55-2.76-7.21,5.13-8.24,8.18-11.4Z"/><text class="cls-9" transform="translate(22.18 162.34)">JARDÍN IN<tspan class="cls-10" x="70.23" y="0">F</tspan><tspan x="78.38" y="0">ANTIL</tspan></text><text class="cls-11" transform="translate(33.1 177.07)">INQ<tspan class="cls-12" x="25.52" y="0">UIE</tspan><tspan class="cls-13" x="50.19" y="0">TUD</tspan><tspan class="cls-14" x="79.53" y="0">ES</tspan></text></g></g></svg>