<svg xmlns="http://www.w3.org/2000/svg" viewBox="0 0 154.5 91"><defs><style>.cls-1{fill:#fff;}</style></defs><g id="Capa_2" data-name="Capa 2"><g id="Capa_1-2" data-name="Capa 1"><path class="cls-1" d="M149.5,34.5H36.75a5,5,0,0,0-5,5v12a5,5,0,0,0,5,5H149.5a5,5,0,0,0,5-5v-12A5,5,0,0,0,149.5,34.5Z"/><path class="cls-1" d="M17,34.5H5a5,5,0,0,0-5,5v12a5,5,0,0,0,5,5H17a5,5,0,0,0,5-5v-12A5,5,0,0,0,17,34.5Z"/><path class="cls-1" d="M149.5,0H36.75a5,5,0,0,0-5,5V17a5,5,0,0,0,5,5H149.5a5,5,0,0,0,5-5V5A5,5,0,0,0,149.5,0Z"/><path class="cls-1" d="M17,0H5A5,5,0,0,0,0,5V17a5,5,0,0,0,5,5H17a5,5,0,0,0,5-5V5A5,5,0,0,0,17,0Z"/><path class="cls-1" d="M149.5,69H36.75a5,5,0,0,0-5,5V86a5,5,0,0,0,5,5H149.5a5,5,0,0,0,5-5V74A5,5,0,0,0,149.5,69Z"/><path class="cls-1" d="M17,69H5a5,5,0,0,0-5,5V86a5,5,0,0,0,5,5H17a5,5,0,0,0,5-5V74A5,5,0,0,0,17,69Z"/></g></g></svg>