<?xml version="1.0" encoding="utf-8"?>
<!-- Generator: Adobe Illustrator 25.2.3, SVG Export Plug-In . SVG Version: 6.00 Build 0)  -->
<svg version="1.1" id="Capa_1" xmlns="http://www.w3.org/2000/svg" xmlns:xlink="http://www.w3.org/1999/xlink" x="0px" y="0px"
	 viewBox="0 0 51 51" style="enable-background:new 0 0 51 51;" xml:space="preserve">
<style type="text/css">
	.st0{fill:#FFFFFF;}
</style>
<g>
	<g>
		<path class="st0" d="M2.1,20.1C1,20.6,0.2,21.5,0,22.7c-0.2,1.1,0.3,2.2,1.3,3l10.4,7.5l37-29.1L16,36.3l14.2,10.4
			c1,0.6,2.1,0.8,3.2,0.5c1.1-0.3,1.9-1.1,2.2-2.2L50.9,3.3c0.2-0.5,0-1-0.3-1.3s-0.8-0.5-1.3-0.3L2.1,20.1z"/>
		<path class="st0" d="M9.3,35.6l0.2,0.5l2.1,11c0.2,0.8,0.6,1.4,1.4,1.8c0.8,0.3,1.6,0.3,2.4-0.2c2.9-1.8,6.4-4.2,6.4-4.3L9.3,35.6
			z"/>
	</g>
</g>
</svg>
