<?xml version="1.0" encoding="utf-8"?>
<!-- Generator: Adobe Illustrator 25.2.3, SVG Export Plug-In . SVG Version: 6.00 Build 0)  -->
<svg version="1.1" id="Capa_1" xmlns="http://www.w3.org/2000/svg" xmlns:xlink="http://www.w3.org/1999/xlink" x="0px" y="0px"
	 viewBox="0 0 92.9 111.5" style="enable-background:new 0 0 92.9 111.5;" xml:space="preserve">
<style type="text/css">
	.st0{fill:#FFFFFF;}
</style>
<g id="Capa_2_1_">
	<g id="Capa_1-2">
		<path class="st0" d="M92.9,13.9v83.6c0,7.7-6.2,13.9-13.9,13.9H14c-7.7,0-14-6.2-14-13.9V13.9C0,6.3,6.3,0,13.9,0h2.3v55.7
			c0,1.9,1.1,3.5,2.9,4.3c1.7,0.7,3.7,0.3,5.1-1l10.7-10.6L45.5,59c0.9,0.9,2,1.4,3.3,1.4c0.6,0,1.2-0.1,1.8-0.4
			c1.7-0.7,2.9-2.4,2.9-4.3V0H79C86.7,0,92.9,6.3,92.9,13.9z"/>
	</g>
</g>
</svg>
