<svg xmlns="http://www.w3.org/2000/svg" viewBox="0 0 41.63 41.63"><defs><style>.cls-1{fill:#c5cae9;}.cls-2{fill:#6e6e78;}.cls-3{fill:#27a5e8;}</style></defs><g id="Capa_2" data-name="Capa 2"><g id="Capa_1-2" data-name="Capa 1"><path class="cls-1" d="M41.27,17a1.71,1.71,0,0,0-1.7-1.41H36.45a16.52,16.52,0,0,0-.9-2.17l2.21-2.22h0A1.74,1.74,0,0,0,38,9a20.85,20.85,0,0,0-5.34-5.34,1.74,1.74,0,0,0-2.21.19h0L28.19,6.08A16.29,16.29,0,0,0,26,5.18V2.06A1.72,1.72,0,0,0,24.6.36,20.13,20.13,0,0,0,17,.36a1.72,1.72,0,0,0-1.41,1.7V5.18a15.26,15.26,0,0,0-2.17.9L11.22,3.87s0,0,0,0A1.72,1.72,0,0,0,9,3.67,20.85,20.85,0,0,0,3.67,9a1.72,1.72,0,0,0,.19,2.2h0l2.21,2.22a15.26,15.26,0,0,0-.9,2.17H2.06A1.71,1.71,0,0,0,.36,17a20.18,20.18,0,0,0,0,7.59A1.72,1.72,0,0,0,2.06,26H5.18a16.29,16.29,0,0,0,.9,2.17L3.87,30.41a1.72,1.72,0,0,0-.2,2.21A20.85,20.85,0,0,0,9,38a1.71,1.71,0,0,0,2.21-.21h0l2.22-2.21a16.52,16.52,0,0,0,2.17.9v3.12A1.71,1.71,0,0,0,17,41.27a20.18,20.18,0,0,0,7.59,0A1.72,1.72,0,0,0,26,39.57V36.45a17.73,17.73,0,0,0,2.17-.9l2.22,2.21h0a1.7,1.7,0,0,0,1.22.52,1.75,1.75,0,0,0,1-.31A20.85,20.85,0,0,0,38,32.62a1.72,1.72,0,0,0-.2-2.21l-2.21-2.22a17.73,17.73,0,0,0,.9-2.17h3.12a1.72,1.72,0,0,0,1.7-1.41,20.18,20.18,0,0,0,0-7.59ZM20.81,29.49a8.68,8.68,0,1,1,8.68-8.68A8.7,8.7,0,0,1,20.81,29.49Z"/><path class="cls-2" d="M20.81,12.14a8.68,8.68,0,1,0,8.68,8.67A8.69,8.69,0,0,0,20.81,12.14Zm0,13.88A5.21,5.21,0,1,1,26,20.81,5.21,5.21,0,0,1,20.81,26Z"/><circle class="cls-3" cx="20.81" cy="20.81" r="5.2" transform="translate(-4.23 36.29) rotate(-76.72)"/></g></g></svg>