<?xml version="1.0" encoding="utf-8"?>
<!-- Generator: Adobe Illustrator 25.2.3, SVG Export Plug-In . SVG Version: 6.00 Build 0)  -->
<svg version="1.1" id="Capa_1" xmlns="http://www.w3.org/2000/svg" xmlns:xlink="http://www.w3.org/1999/xlink" x="0px" y="0px"
	 viewBox="0 0 112.1 112.1" style="enable-background:new 0 0 112.1 112.1;" xml:space="preserve">
<style type="text/css">
	.st0{fill:#00BDD5;}
</style>
<g id="Capa_2_1_">
	<g id="Capa_1-2">
		<path class="st0" d="M98.1,0H14C6.3,0,0,6.3,0,14v84.1c0,7.7,6.3,14,14,14h84.1c7.7,0,14-6.3,14-14V14C112.1,6.3,105.9,0,98.1,0z
			 M32.7,60.8c-2.6,0-4.7-2.1-4.7-4.7s2.1-4.7,4.7-4.7s4.7,2.1,4.7,4.7l0,0C37.4,58.6,35.3,60.7,32.7,60.8z M56.1,60.8
			c-2.6,0-4.7-2.1-4.7-4.7s2.1-4.7,4.7-4.7c2.6,0,4.7,2.1,4.7,4.7C60.7,58.7,58.7,60.7,56.1,60.8z M79.4,60.8
			c-2.6,0-4.7-2.1-4.7-4.7s2.1-4.7,4.7-4.7s4.7,2.1,4.7,4.7l0,0C84.1,58.6,82,60.7,79.4,60.8z"/>
	</g>
</g>
</svg>
