<?xml version="1.0" encoding="utf-8"?>
<!-- Generator: Adobe Illustrator 25.2.3, SVG Export Plug-In . SVG Version: 6.00 Build 0)  -->
<svg version="1.1" id="Capa_1" xmlns="http://www.w3.org/2000/svg" xmlns:xlink="http://www.w3.org/1999/xlink" x="0px" y="0px"
	 viewBox="0 0 112 112" style="enable-background:new 0 0 112 112;" xml:space="preserve">
<style type="text/css">
	.st0{fill:#FFFFFF;}
</style>
<g id="Capa_2_1_">
	<g id="Capa_1-2">
		<path class="st0" d="M110.6,104.1L86.8,80.2c17.3-20.9,14.3-51.8-6.6-69.1S28.4-3.2,11.1,17.7s-14.3,51.8,6.6,69.1
			c18.1,15,44.3,15,62.5,0l23.9,23.8c1.8,1.8,4.7,1.8,6.5,0.1c0,0,0,0,0.1-0.1C112.3,108.9,112.2,106,110.6,104.1z M49,88.7
			C27.1,88.7,9.3,70.9,9.3,49S27.1,9.3,49,9.3S88.7,27.1,88.7,49l0,0C88.7,70.9,70.9,88.7,49,88.7z"/>
	</g>
</g>
</svg>
