<svg xmlns="http://www.w3.org/2000/svg" viewBox="0 0 112.02 112.02"><defs><style>.cls-1{fill:#fff;}</style></defs><g id="Capa_2" data-name="Capa 2"><g id="Capa_1-2" data-name="Capa 1"><path class="cls-1" d="M111.84,51.46a56,56,0,1,0-60.38,60.38A56.21,56.21,0,0,0,111.84,51.46ZM37.69,33.67a18.68,18.68,0,1,1,22,22A18.65,18.65,0,0,1,37.69,33.67ZM91.16,86.45l-.07.07a4.58,4.58,0,0,1-7.54-.94,30.88,30.88,0,0,0-55.13.07,4.51,4.51,0,0,1-7.47.91l-.07-.09a4.76,4.76,0,0,1-.6-5.3,40.14,40.14,0,0,1,44-21,39.15,39.15,0,0,1,14.19,6,40.7,40.7,0,0,1,13.28,15A4.78,4.78,0,0,1,91.16,86.45Z"/></g></g></svg>