<?xml version="1.0" encoding="utf-8"?>
<!-- Generator: Adobe Illustrator 25.2.3, SVG Export Plug-In . SVG Version: 6.00 Build 0)  -->
<svg version="1.1" id="Capa_1" xmlns="http://www.w3.org/2000/svg" xmlns:xlink="http://www.w3.org/1999/xlink" x="0px" y="0px"
	 viewBox="0 0 112 112" style="enable-background:new 0 0 112 112;" xml:space="preserve">
<style type="text/css">
	.st0{fill:#00BDD5;}
</style>
<g id="Capa_2_1_">
	<g id="Capa_1-2">
		<path class="st0" d="M111.8,51.5C109.3,20.6,82.3-2.3,51.5,0.2S-2.3,29.8,0.2,60.6c2.2,27.3,23.9,49,51.2,51.2
			c31,2.4,58-20.8,60.4-51.7C112.1,57.2,112.1,54.3,111.8,51.5z M37.7,33.7c2-10.1,11.9-16.7,22-14.6s16.7,11.9,14.6,22
			c-1.5,7.4-7.2,13.1-14.6,14.6c-10.1,2.1-19.9-4.5-22-14.5C37.2,38.7,37.2,36.1,37.7,33.7z M91.2,86.4L91.2,86.4
			c-1.7,2-4.6,2.2-6.5,0.5c-0.4-0.4-0.8-0.9-1.1-1.4C75.8,70.4,57.3,64.3,42,72c-5.9,3-10.7,7.8-13.6,13.7c-1.1,2.2-3.8,3.1-6,2
			c-0.5-0.3-1-0.6-1.4-1.1l-0.1-0.1c-1.3-1.5-1.5-3.6-0.6-5.3c8.2-16.1,26.3-24.7,44-21c5.1,1,9.9,3.1,14.2,6
			c5.6,3.8,10.2,9,13.3,15C92.6,82.9,92.4,85,91.2,86.4z"/>
	</g>
</g>
</svg>
