<?xml version="1.0" encoding="utf-8"?>
<!-- Generator: Adobe Illustrator 25.2.3, SVG Export Plug-In . SVG Version: 6.00 Build 0)  -->
<svg version="1.1" id="Capa_1" xmlns="http://www.w3.org/2000/svg" xmlns:xlink="http://www.w3.org/1999/xlink" x="0px" y="0px"
	 viewBox="0 0 112 112" style="enable-background:new 0 0 112 112;" xml:space="preserve">
<style type="text/css">
	.st0{fill:#00BDD5;}
</style>
<g id="Capa_2_1_">
	<g id="Capa_1-2">
		<path class="st0" d="M56,0C25.1,0,0,25.1,0,56s25.1,56,56,56s56-25.1,56-56S86.9,0,56,0z M56.3,92.4c-2.4,0-4.4-2-4.4-4.4
			s2-4.4,4.4-4.4s4.4,2,4.4,4.4l0,0C60.7,90.4,58.7,92.4,56.3,92.4L56.3,92.4z M60.7,60.2v12.1c0,2.6-2.1,4.7-4.7,4.7
			c-2.6,0-4.7-2.1-4.7-4.7V56c0-2.6,2.1-4.7,4.7-4.7c5.8,0,11.7-3.5,11.7-10.1c0-6.3-5.1-11.4-11.4-11.4c-4.3,0.1-8.2,2.6-10.1,6.4
			c-1.2,2.3-4.1,3.1-6.4,1.8c-2.2-1.2-3-3.9-2-6.1c5.1-10.2,17.5-14.4,27.7-9.3c7,3.5,11.5,10.7,11.4,18.6
			C77,50.8,70.2,58.3,60.7,60.2L60.7,60.2z"/>
	</g>
</g>
</svg>
