<svg xmlns="http://www.w3.org/2000/svg" viewBox="0 0 228.09 228.09"><defs><style>.cls-1{fill:#fff;}</style></defs><g id="Capa_2" data-name="Capa 2"><g id="Capa_1-2" data-name="Capa 1"><path class="cls-1" d="M114.05,0a114,114,0,1,0,114,114.05,114,114,0,0,0-114-114m6.65,214.89A100.85,100.85,0,1,1,221.55,114.05,100.81,100.81,0,0,1,120.7,214.89M67,32.44A94.22,94.22,0,1,0,195.66,67,94.18,94.18,0,0,0,67,32.44m93.36,148.45A81,81,0,1,1,190,70.28a81,81,0,0,1-29.64,110.61M49.7,76.83A74.4,74.4,0,1,0,151.37,49.59,74.31,74.31,0,0,0,49.7,76.83m122,62.9a62.79,62.79,0,1,1-23-85.79,62.77,62.77,0,0,1,23,85.79M57.91,114.05A56.24,56.24,0,1,0,114.15,57.8a56.21,56.21,0,0,0-56.24,56.25m100.84-6.66a44.6,44.6,0,1,1-44.6-44.6,44.59,44.59,0,0,1,44.6,44.6"/></g></g></svg>