<?xml version="1.0" encoding="utf-8"?>
<!-- Generator: Adobe Illustrator 25.2.3, SVG Export Plug-In . SVG Version: 6.00 Build 0)  -->
<svg version="1.1" id="Capa_1" xmlns="http://www.w3.org/2000/svg" xmlns:xlink="http://www.w3.org/1999/xlink" x="0px" y="0px"
	 viewBox="0 0 134.4 112" style="enable-background:new 0 0 134.4 112;" xml:space="preserve">
<style type="text/css">
	.st0{fill:#FFFFFF;}
	.st1{fill:none;}
</style>
<g id="Capa_2_1_">
	<g id="Capa_1-2">
		<path class="st0" d="M117.6,0H16.8C7.5,0,0,7.5,0,16.8v14h134.4v-14C134.4,7.5,126.9,0,117.6,0z"/>
		<path class="st0" d="M0,42v53.2c0,9.3,7.5,16.8,16.8,16.8h100.8c9.3,0,16.8-7.5,16.8-16.8V42H0z M53.2,75.6h-28
			c-3.1,0-5.6-2.5-5.6-5.6c0-3.1,2.5-5.6,5.6-5.6c0,0,0,0,0,0h28c3.1,0,5.6,2.5,5.6,5.6C58.8,73.1,56.3,75.6,53.2,75.6
			C53.2,75.6,53.2,75.6,53.2,75.6z"/>
		<path class="st1" d="M58.8,70c0,3.1-2.5,5.6-5.6,5.6h-28c-3.1,0-5.6-2.5-5.6-5.6c0-3.1,2.5-5.6,5.6-5.6c0,0,0,0,0,0h28
			C56.3,64.4,58.8,66.9,58.8,70z"/>
		<rect y="30.8" class="st1" width="134.4" height="11.2"/>
	</g>
</g>
</svg>
