<?xml version="1.0" encoding="utf-8"?>
<!-- Generator: Adobe Illustrator 25.2.3, SVG Export Plug-In . SVG Version: 6.00 Build 0)  -->
<svg version="1.1" id="Capa_1" xmlns="http://www.w3.org/2000/svg" xmlns:xlink="http://www.w3.org/1999/xlink" x="0px" y="0px"
	 viewBox="0 0 112 112" style="enable-background:new 0 0 112 112;" xml:space="preserve">
<style type="text/css">
	.st0{fill:#00BDD5;}
</style>
<g id="Capa_2_1_">
	<g>
		<g id="Capa_1-2_8_">
			<path class="st0" d="M98,0H14C6.3,0,0,6.3,0,14v60.7c0,7.7,6.3,14,14,14h27.5l10.4,20.8c1.2,2.3,4,3.2,6.3,2.1
				c0.9-0.5,1.6-1.2,2.1-2.1l10.4-20.8H98c7.7,0,14-6.3,14-14V14C112,6.3,105.7,0,98,0z M74.7,70H37.3c-2.6,0.1-4.8-1.9-4.9-4.4
				s1.9-4.8,4.4-4.9c0.1,0,0.3,0,0.4,0h37.3c2.6-0.1,4.8,1.9,4.9,4.4S77.5,69.9,75,70C75,70,74.8,70,74.7,70z M74.7,49H37.3
				c-2.6,0-4.7-2.1-4.7-4.7c0-2.6,2.1-4.7,4.7-4.7h37.3c2.6,0,4.7,2.1,4.7,4.7C79.3,46.9,77.3,49,74.7,49z M74.7,28H37.3
				c-2.6,0.1-4.8-1.9-4.9-4.4s1.9-4.8,4.4-4.9c0.1,0,0.3,0,0.4,0h37.3c2.6-0.1,4.8,1.9,4.9,4.4c0.1,2.6-1.9,4.8-4.4,4.9
				C75,28,74.8,28,74.7,28z"/>
		</g>
	</g>
</g>
</svg>
