<svg xmlns="http://www.w3.org/2000/svg" viewBox="0 0 49.95 41.63"><defs><style>.cls-1{fill:#39cbf3;}.cls-2{fill:#27a5e8;}.cls-3{fill:#33c7f2;}</style></defs><g id="Capa_2" data-name="Capa 2"><g id="Capa_1-2" data-name="Capa 1"><path d="M49.34,3.55,44,8.88H50V6.24A6.21,6.21,0,0,0,49.34,3.55Z"/><path class="cls-1" d="M25,22,38.13,8.88,46.39.61A6.13,6.13,0,0,0,43.71,0H6.24A6.16,6.16,0,0,0,3.56.61l8.26,8.27Z"/><path class="cls-2" d="M49.34,3.55,21.93,24.86.61,3.55A6.21,6.21,0,0,0,0,6.24V35.38a6.25,6.25,0,0,0,6.24,6.25H43.71A6.25,6.25,0,0,0,50,35.38V6.24A6.21,6.21,0,0,0,49.34,3.55Z"/><path class="cls-3" d="M46.39.61A6.13,6.13,0,0,0,43.71,0H6.24A6.16,6.16,0,0,0,3.56.61,6.28,6.28,0,0,0,.61,3.55L5.94,8.88l7.93,7.93,9.64,9.63a2.06,2.06,0,0,0,1.47.62,2,2,0,0,0,1.46-.62l9.64-9.63L44,8.88l5.33-5.33A6.28,6.28,0,0,0,46.39.61Z"/></g></g></svg>