<svg xmlns="http://www.w3.org/2000/svg" viewBox="0 0 34.69 41.63"><defs><style>.cls-1{fill:#27a5e8;}.cls-2{fill:#6e6e78;}.cls-3{fill:#c5cae9;}</style></defs><g id="Capa_2" data-name="Capa 2"><g id="Capa_1-2" data-name="Capa 1"><path class="cls-1" d="M20,19.08h-14l2.23-2.25a1.73,1.73,0,0,0-2.44-2.44L.51,19.59A1.73,1.73,0,0,0,.51,22l5.21,5.2a1.71,1.71,0,0,0,2.44,0,1.7,1.7,0,0,0,0-2.44L5.93,22.55H20a1.74,1.74,0,0,0,0-3.47Z"/><path class="cls-2" d="M15.61,6.07a5.2,5.2,0,0,0-5.2,5.2v7.81H20a1.74,1.74,0,0,1,0,3.47H10.41v7.8a5.21,5.21,0,0,0,5.2,5.21h6.94V6.07Z"/><path class="cls-3" d="M32.47,5.35l-7.19-5a1.74,1.74,0,0,0-2.73,1.43V39.89a1.73,1.73,0,0,0,.94,1.54,1.6,1.6,0,0,0,.79.2,1.81,1.81,0,0,0,1-.31l7.19-5A5.21,5.21,0,0,0,34.69,32V9.61A5.21,5.21,0,0,0,32.47,5.35Z"/></g></g></svg>