<?xml version="1.0" encoding="utf-8"?>
<!-- Generator: Adobe Illustrator 25.2.3, SVG Export Plug-In . SVG Version: 6.00 Build 0)  -->
<svg version="1.1" id="Capa_1" xmlns="http://www.w3.org/2000/svg" xmlns:xlink="http://www.w3.org/1999/xlink" x="0px" y="0px"
	 viewBox="0 0 84 112" style="enable-background:new 0 0 84 112;" xml:space="preserve">
<style type="text/css">
	.st0{fill:#FFFFFF;}
</style>
<g id="Capa_2_1_">
	<g id="Capa_1-2">
		<path class="st0" d="M42,0C18.8,0,0,18.8,0,42c0,13.1,5.4,21.2,10.2,28.4l28,39.6c1.5,2.1,4.4,2.6,6.5,1.1
			c0.4-0.3,0.8-0.7,1.1-1.1l28-39.7c0,0,0-0.1,0.1-0.1C78.7,63.2,84,55.1,84,42C84,18.8,65.2,0,42,0z M42,63c-11.6,0-21-9.4-21-21
			s9.4-21,21-21s21,9.4,21,21S53.6,63,42,63L42,63z"/>
		<circle class="st0" cx="42" cy="42" r="11.7"/>
	</g>
</g>
</svg>
