<svg xmlns="http://www.w3.org/2000/svg" viewBox="0 0 212.2 212.2"><defs><style>.cls-1{fill:#1c1f26;}</style></defs><g id="Capa_2" data-name="Capa 2"><g id="Capa_1-2" data-name="Capa 1"><path class="cls-1" d="M106.34,212.2A105.86,105.86,0,1,1,212.2,106.34,106,106,0,0,1,106.34,212.2Zm2.93-179.94a39.9,39.9,0,0,1,17.34,3.8,8.7,8.7,0,0,0,.89.4,32.4,32.4,0,0,1,14.88,12.12,14.93,14.93,0,0,1,2.26,8V77.87a13.13,13.13,0,0,0,2,7l1.17,1.88a15.44,15.44,0,0,1,2.25,6.63,41.82,41.82,0,0,1-.32,11.91,15.29,15.29,0,0,1-5.44,8.81,13.17,13.17,0,0,0-4,5.42C138.52,124,135,132.18,131,137.07a13.39,13.39,0,0,0-3.12,9.52,45,45,0,0,0,1.22,7.66,13.05,13.05,0,0,0,7.11,8.57l34.43,18.26.12-.1a98.62,98.62,0,1,0-129.16-.32l.12.1,33.85-17.95a13,13,0,0,0,7.1-8.56,43.21,43.21,0,0,0,1.22-7.66,13.39,13.39,0,0,0-3.11-9.52c-4-4.88-7.56-13.09-9.33-17.54a13.18,13.18,0,0,0-4-5.43A15.29,15.29,0,0,1,62,105.29a41.82,41.82,0,0,1-.32-11.91,15.44,15.44,0,0,1,2.25-6.63l1.17-1.88a13.14,13.14,0,0,0,2-7V56.61a15,15,0,0,1,2.25-8,32.42,32.42,0,0,1,14.9-12.12l.89-.4a39.77,39.77,0,0,1,17.33-3.8c1.11,0,2.25,0,3.39.12C107,32.3,108.15,32.26,109.27,32.26Z" transform="translate(-0.24 -0.24)"/><path d="M106.34.72A105.62,105.62,0,1,1,.72,106.34,105.74,105.74,0,0,1,106.34.72M41.66,181.05l.29-.15L75.63,163a13.22,13.22,0,0,0,7.24-8.72,43.5,43.5,0,0,0,1.23-7.7,13.61,13.61,0,0,0-3.17-9.69c-4-4.86-7.52-13-9.29-17.48a13.31,13.31,0,0,0-4.09-5.52,15,15,0,0,1-5.35-8.68,41.33,41.33,0,0,1-.32-11.84,15.2,15.2,0,0,1,2.21-6.52L65.26,85a13.43,13.43,0,0,0,2-7.13V56.61a14.64,14.64,0,0,1,2.23-7.9,32.09,32.09,0,0,1,14.78-12l.9-.41a39.62,39.62,0,0,1,17.23-3.77c1.11,0,2.24,0,3.37.12h.07c1.13-.08,2.27-.12,3.38-.12a39.63,39.63,0,0,1,17.24,3.78c.3.14.6.28.91.4a32.22,32.22,0,0,1,14.76,12,14.72,14.72,0,0,1,2.22,7.9V77.87a13.43,13.43,0,0,0,2,7.13l1.17,1.87a15.3,15.3,0,0,1,2.22,6.53,42.07,42.07,0,0,1-.32,11.84,15.06,15.06,0,0,1-5.36,8.68,13.4,13.4,0,0,0-4.09,5.52c-1.77,4.44-5.33,12.62-9.28,17.48a13.62,13.62,0,0,0-3.18,9.69,44.44,44.44,0,0,0,1.23,7.7,13.25,13.25,0,0,0,7.23,8.72l0,0,34.24,18.17.29.15.25-.21a98.86,98.86,0,1,0-129.48-.32l.25.21M106.34.24a106.1,106.1,0,1,0,106.1,106.1A106.21,106.21,0,0,0,106.34.24ZM41.73,180.48a98.39,98.39,0,1,1,128.85.32l-34.24-18.17-.06,0a12.8,12.8,0,0,1-7-8.41,43.54,43.54,0,0,1-1.21-7.62,13.16,13.16,0,0,1,3.06-9.35c4-4.91,7.59-13.14,9.37-17.61a12.94,12.94,0,0,1,3.94-5.32,15.48,15.48,0,0,0,5.52-9,42.05,42.05,0,0,0,.33-12A15.9,15.9,0,0,0,148,86.62l-1.18-1.88a12.91,12.91,0,0,1-2-6.87V56.61a15.21,15.21,0,0,0-2.3-8.16,32.68,32.68,0,0,0-15-12.21l-.88-.39A39.94,39.94,0,0,0,109.27,32c-1.13,0-2.26,0-3.41.12-1.15-.08-2.29-.12-3.41-.12A39.93,39.93,0,0,0,85,35.84c-.31.15-.6.28-.88.39a32.74,32.74,0,0,0-15,12.23,15.17,15.17,0,0,0-2.29,8.15V77.87a13,13,0,0,1-2,6.88l-1.17,1.87a15.78,15.78,0,0,0-2.29,6.73,42.42,42.42,0,0,0,.33,12,15.5,15.5,0,0,0,5.52,9,13,13,0,0,1,4,5.32c1.78,4.47,5.36,12.7,9.36,17.61a13.21,13.21,0,0,1,3.07,9.35,44.63,44.63,0,0,1-1.22,7.62,12.77,12.77,0,0,1-7,8.41l-33.7,17.88Z" transform="translate(-0.24 -0.24)"/></g></g></svg>