<svg xmlns="http://www.w3.org/2000/svg" viewBox="0 0 262.48 85.92"><defs><style>.cls-1{fill:#923f1b;}.cls-1,.cls-2,.cls-3,.cls-4,.cls-5,.cls-6,.cls-7,.cls-8{fill-rule:evenodd;}.cls-2{fill:#88ae27;}.cls-3{fill:#066c34;}.cls-4{fill:#009481;}.cls-5{fill:#8cb026;}.cls-6{fill:#00907c;}.cls-7{fill:#3bac9f;}.cls-8{fill:#98b221;}.cls-9{fill:#960000;}.cls-10{fill:#00767f;}.cls-11{fill:#0c6802;}.cls-12{fill:#899300;}</style></defs><g id="Capa_2" data-name="Capa 2"><g id="Capa_1-2" data-name="Capa 1"><path class="cls-1" d="M50.35,85.69s7.14.86,7.24-.79c.07-2.28-1.23-13.54-.72-15.09a3.23,3.23,0,0,1,.74-1.22,7.59,7.59,0,0,1,2-1.29,24.63,24.63,0,0,0,2.31-1.22c1.4-.86,1.33-.78,2-1.93l.57-.78a15.09,15.09,0,0,0,1.7-2.55,15,15,0,0,0,.59-3.67,3.49,3.49,0,0,0-.28-1.87c-.44-.73-1.22-.57-1.61.19a4.6,4.6,0,0,0-.25.77c-.07.29-.06.52-.12.77s0,.24,0,.42A4.53,4.53,0,0,1,64.34,59,10.52,10.52,0,0,1,63,61c-.77,1.16-1.86,2.32-3.38,2.24a6.17,6.17,0,0,1,1.43-1.73c.52-.44.8-.43,1.2-1.05a1.61,1.61,0,0,0,.24-1.13.83.83,0,0,0-.38-.63c-.93-.58-1.8.32-2.47.91l-.63.55-.36.32-.36.31-.21.16-.22.17c-1,.79-2.53,1.29-3.69,2.08a4.74,4.74,0,0,0-1.93,2.24,19.37,19.37,0,0,0-.83,5.21C51.42,71.46,50.18,85.41,50.35,85.69Z"/><path class="cls-1" d="M49.47,85.69s-7.13.86-7.23-.79c-.08-2.28,1.23-13.54.72-15.09a3.25,3.25,0,0,0-.75-1.22,7.69,7.69,0,0,0-2-1.29c-1-.5-1.6-.78-2.32-1.22-1.39-.86-1.33-.78-2-1.93l-.57-.78a15.14,15.14,0,0,1-1.71-2.55A15.5,15.5,0,0,1,33,57.15a3.59,3.59,0,0,1,.29-1.87c.44-.73,1.22-.57,1.61.19a5.75,5.75,0,0,1,.25.77c.07.29.06.52.11.77s0,.24,0,.42A4.3,4.3,0,0,0,35.49,59a11,11,0,0,0,1.3,2c.78,1.16,1.87,2.32,3.39,2.24a6.23,6.23,0,0,0-1.44-1.73c-.51-.44-.8-.43-1.19-1.05a1.52,1.52,0,0,1-.24-1.13.79.79,0,0,1,.37-.63c.94-.58,1.81.32,2.47.91l.63.55.36.32.37.31.2.16.22.17c1,.79,2.53,1.29,3.7,2.08a4.85,4.85,0,0,1,1.93,2.24,19.78,19.78,0,0,1,.83,5.21C48.41,71.46,49.65,85.41,49.47,85.69Z"/><path class="cls-1" d="M44.52,59.26a40.73,40.73,0,0,1,3.3-3,4.77,4.77,0,0,0,1.92-3.69,13.68,13.68,0,0,0-.13-2.93,10.31,10.31,0,0,1,0-2.42v-.3c0-1-.39-2.68-1.85-2.23-.2.77-.37,1.35-.52,2.11-.1.57-.24,1.27-.25,1.5,0,.53,0,1.12-.08,1.37a5.82,5.82,0,0,1,0-3.74c.5-1.76,1.45-4.2,1.58-4.63.4-1.26.88-2.56,1.17-3.71.15-.6.38-1.55-.29-1.9a.75.75,0,0,0-.59-.06,3.52,3.52,0,0,0-.77,1l-.67,1.09c-1.1,1.84-2.4,4.25-2.44,4.3-.33.56-.67,1.13-.93,1.67a5.9,5.9,0,0,0-.4,1.23c-.27,1.12-.5,2.54-.68,3.13a37.45,37.45,0,0,0-1.48,5.35,1.32,1.32,0,0,1-.56,1c-.21.18-.6.51-.91.82-.62.62-.73.93-.23,1.61a26.92,26.92,0,0,0,2.45,2.67C43.32,60.72,43.58,60.2,44.52,59.26Z"/><path class="cls-1" d="M56.66,58.45c-1.29-1.28-2-1.89-3.31-3a4.77,4.77,0,0,1-1.92-3.69,14.36,14.36,0,0,1,.14-2.93,10.88,10.88,0,0,0,0-2.42v-.3c0-1.05.39-2.67,1.84-2.23.2.77.38,1.35.52,2.11.11.57.24,1.27.25,1.51a12.69,12.69,0,0,0,.09,1.36,5.76,5.76,0,0,0,0-3.74c-.49-1.76-1.44-4.2-1.58-4.64-.4-1.26-.88-2.54-1.16-3.7-.16-.6-.39-1.55.28-1.9a.73.73,0,0,1,.6,0,3.81,3.81,0,0,1,.77,1c.2.32.43.69.66,1.09,1.1,1.84,2.41,4.25,2.44,4.31.33.56.67,1.12.94,1.66a6.56,6.56,0,0,1,.4,1.23c.27,1.12.5,2.53.68,3.13a38.84,38.84,0,0,1,1.48,5.35,1.3,1.3,0,0,0,.56,1c.21.18.59.51.91.83.61.61.72.91.22,1.6A26.82,26.82,0,0,1,59,58.74C57.86,59.9,57.59,59.39,56.66,58.45Z"/><path class="cls-1" d="M58.93,85.77s4.75.57,4.82-.53c0-1.52-.82-10.42-.48-11.46a2.15,2.15,0,0,1,.49-.81,5.46,5.46,0,0,1,1.33-.86c.68-.33,1.07-.52,1.55-.81.92-.57.88-.52,1.36-1.29l.38-.52a10.16,10.16,0,0,0,1.13-1.69,10.26,10.26,0,0,0,.4-2.45,2.53,2.53,0,0,0-.19-1.25c-.3-.48-.82-.38-1.07.13a2.54,2.54,0,0,0-.17.51c0,.19,0,.35-.08.52s0,.16,0,.28a2.91,2.91,0,0,1-.14,1,8.43,8.43,0,0,1-.87,1.33,2.71,2.71,0,0,1-2.26,1.48,4,4,0,0,1,1-1.15c.34-.29.53-.28.79-.7a1,1,0,0,0,.16-.75.54.54,0,0,0-.25-.42c-.62-.39-1.2.21-1.64.61l-.42.36-.24.22-.25.2-.13.11L64,68c-.67.53-1.69.86-2.46,1.39a3.23,3.23,0,0,0-1.29,1.49,13.12,13.12,0,0,0-.55,3.47C59.64,74.88,58.81,85.58,58.93,85.77Z"/><path class="cls-1" d="M40.35,85.77s-4.75.57-4.82-.53c-.05-1.52.82-10.42.48-11.46a2,2,0,0,0-.5-.81,5.1,5.1,0,0,0-1.33-.86,17.38,17.38,0,0,1-1.54-.81c-.93-.57-.88-.52-1.36-1.29l-.38-.52a10.22,10.22,0,0,1-1.14-1.69,10.76,10.76,0,0,1-.39-2.45,2.43,2.43,0,0,1,.19-1.25c.3-.48.82-.38,1.07.13a3.39,3.39,0,0,1,.17.51c.05.19,0,.35.08.52a2.72,2.72,0,0,0,0,.28,2.91,2.91,0,0,0,.14,1,7.78,7.78,0,0,0,.87,1.33,2.69,2.69,0,0,0,2.26,1.48,4.21,4.21,0,0,0-1-1.15c-.34-.29-.53-.28-.79-.7a1.08,1.08,0,0,1-.17-.75.57.57,0,0,1,.25-.42c.63-.39,1.21.21,1.65.61l.42.36.24.22.24.2.14.11.15.11c.67.53,1.68.86,2.46,1.39a3.23,3.23,0,0,1,1.29,1.49,13.55,13.55,0,0,1,.55,3.47C39.64,74.88,40.47,85.58,40.35,85.77Z"/><path class="cls-2" d="M55.74,18.94a11.25,11.25,0,0,0,1.63,7.27c.59-.92,1.33-6.81,3.12-7.82-.27,1.21-1.09,2.42-1.42,4a18.8,18.8,0,0,0-.06,5.2c7.57-.46,11.08-13.32,5.62-20.4-.76,1.91-.71,2.12-2.18,3.53C60.14,12.92,56.21,15.62,55.74,18.94Z"/><path class="cls-2" d="M37.94,26.08a19.83,19.83,0,0,0-2.2-10.67c2.74,1.31,4.3,5.08,4.16,9.32a12.3,12.3,0,0,0,1.36-3.4c1.93-7.91-4.61-8.94-7.75-13.7a3,3,0,0,1-.72-1.8C25.86,10.48,29.93,23,37.94,26.08Z"/><path class="cls-2" d="M22,39.6c-.43-3.28-6.16-7.07-7.5-6.82,3.63-.21,6.44,2.39,8.17,4.85-.14-5.62-3.51-7.91-8.27-8.56-4-.56-3.55-.77-6.7-1.85C7.8,35.37,14.25,40.24,22,39.6Z"/><path class="cls-2" d="M90.93,25.62c-.47,1-3.74,1.37-6.39,1.54-4.84.32-8.92,1.94-8.75,7.35,1.44-1.73,4.72-4.19,7.92-4-2.88,1.55-6,2.28-7.49,6.07C80.42,39.48,91.6,33.37,90.93,25.62Z"/><path class="cls-3" d="M64.12,51.9c7.29-3,9.9-7.94,8-15.64-1.15.52-.14.9-3.63,2.82a34.16,34.16,0,0,0-4.09,2.27c-3.7,2.73-3.4,7.76-2.48,9.29.81-2.27,1.76-5.83,5.7-7.25,0,1-3.35,3.3-4.57,8.8Z"/><path class="cls-4" d="M13.16,72c2.76.88,4.25,1.46,7.41.6,2.63-.72,6.48-4,6.84-6.83-4.32-.36-7.15,2.73-8.06,3,1.09-2.66,5.47-3.61,6.86-4.17a7.16,7.16,0,0,0-4.35-.77C17.69,64.5,15.7,70.42,13.16,72Z"/><path class="cls-5" d="M72.5,65.53A14.83,14.83,0,0,1,76.22,67a9.42,9.42,0,0,1,2.72,2.37c-1.7-1.07-2.89-3.14-7.6-3,.23,3.58,5.72,7.22,9.48,7.14,1.53,0,3.58-.34,4.53-1.11-2.08-1.54-1.58-.93-3.18-3.35C80.23,66.17,76.06,62.25,72.5,65.53Z"/><path class="cls-3" d="M82.73,44.59c1.87-2,3.41-2.35,6.07-2.39-.45.34-5.1,1.51-5.87,4.09a10,10,0,0,0,12-4,10.11,10.11,0,0,0,1.27-3.16c-3.32,1.22-5.11-.18-8.3.3A6.71,6.71,0,0,0,82.73,44.59Z"/><path class="cls-5" d="M17.66,55.67c.89,2.95,3.33,4.63,6.11,5.39A9.47,9.47,0,0,0,32,59.74c-2.89-1.64-3.63-2.33-9-1.84a9.15,9.15,0,0,1,8.62.44c-.5-2.83-4.18-4.28-6.74-3.91S20.39,55.73,17.66,55.67Z"/><path class="cls-6" d="M61.14,30.61c-2.14,1.52-3.72,3.82-1.76,7.31a9.75,9.75,0,0,1,4.55-6.25c-1,1.82-3.74,5-3.72,7.47,7-1.48,8-6.62,7.19-12.69C66,28.61,62.9,29.35,61.14,30.61Z"/><path class="cls-6" d="M29.17,27.24c-.9,5.41,3.28,9.51,7.6,10.33a9,9,0,0,0-3.56-6.84c3,.86,3.77,3.37,4.63,5.52.13-4.65.69-5.95-4.08-8.37-.76-.38-3.88-2.16-4.06-2.81,0-.09-.1-.09-.19-.13Z"/><path class="cls-3" d="M47.09,14.38a13.16,13.16,0,0,0,.44-7.57c1.1,1.86,1,4.62.87,7.1C54.51,9.54,48,4,47.09,0,43.42,3.15,42.26,11.3,47.09,14.38Z"/><path class="cls-3" d="M70.62,24.15a8.94,8.94,0,0,1,5.59-3.9c-1.35,1.15-4.28,1.62-5,5.47,8.07-.57,10-5.38,9.33-10.27,0,0-6.93,2.69-7.06,2.76C71.53,19.22,70.36,20.89,70.62,24.15Z"/><path class="cls-5" d="M83.3,49.85c-3,0-8.08-1.15-10.45,0A7.27,7.27,0,0,0,69.6,54c2.3-1.63,3.71-2,4.79-1.52-1.79.69-4.18,1.62-4.78,3.25C74.87,57.9,82.86,55,83.3,49.85Z"/><path class="cls-3" d="M15.91,55.05c-1-1.7-6.12-1.94-7.28-2a8.72,8.72,0,0,1,6.62.07c-.5-2-2.87-4.84-8.67-2.15A39.09,39.09,0,0,1,1,53.13C3.16,58.08,11.83,58.6,15.91,55.05Z"/><path class="cls-3" d="M32.4,48.23c-.11-2.7-1.68-5.56-3.12-6.38,2.72-.13,3.39,3.95,4.1,5,.79-7.16-2.7-7.12-8.06-10.75C23.73,41.57,26.63,47.2,32.4,48.23Z"/><path class="cls-6" d="M74.52,60.33a9.66,9.66,0,0,0-1.25-1.13,2.62,2.62,0,0,0-3.4.35,5.47,5.47,0,0,1,2.63.68c-.8-.12-2.26-.59-3-.08a4.26,4.26,0,0,0,2.75,2A4.57,4.57,0,0,0,76,61.33C75.5,61,75.63,61.34,74.52,60.33Z"/><path class="cls-3" d="M27,25.69c-.45-3.28-4.38-5.39-4.9-6,3,.54,5,3.52,5.55,4.55,1.26-7.41-7.25-6.23-9.9-8.82C17.35,21.51,21.41,25.69,27,25.69Z"/><path class="cls-3" d="M6.18,43.89c.94.25,4,.45,4.41-.42-1-1.85-3.72-2.57-5.61-3,2.48-.57,4.63,1,5.73,2-1.36-5.26-6-3-9.38-3.52A6.75,6.75,0,0,0,6.18,43.89Z"/><path class="cls-7" d="M91,56.82c-2.44-.23-2.48-1-4.45-1.37-2.15-.41-4.68.17-5.43,2.2,2.43-.46,2.44-.81,5-.26-2.29,0-3.71-.08-5.23,1.19C81.88,61.32,89.7,60.48,91,56.82Z"/><path class="cls-8" d="M0,68c3.11,3.88,10.56.83,12.11-2.87A38.09,38.09,0,0,0,5,66.33a18.83,18.83,0,0,1,6.54-2.1,5,5,0,0,0-4.9-1.07C4.62,63.6,2.16,66.51,0,68Z"/><path class="cls-3" d="M93.43,66C89,64.23,86,60.79,81.17,64c2.54-.52,4.1,1.08,7.09,1.92-2.53-.12-6-1-7.38-.4.58,1.2,2.21,2.18,3.9,2.73A8,8,0,0,0,93.43,66Z"/><path class="cls-5" d="M24.76,51.38c.9-.09.37-.15.58-.34C25,50,21,48.68,19,48.06a11.57,11.57,0,0,1,6.32,1.65c-.47-4.44-6-3.29-9.3-3.26a5.26,5.26,0,0,0,1.1,2.44A6.9,6.9,0,0,0,24.76,51.38Z"/><path class="cls-5" d="M91.45,51.88c-.64-1-4,0-4.86.6A5,5,0,0,0,89.41,54c2.7.66,7.13-.45,7.88-3.27a7.33,7.33,0,0,1-3.39-1c-2.18-1.05-6-1.12-6.93,1.62C88.74,50.71,90.63,50.76,91.45,51.88Z"/><path class="cls-6" d="M48.47,21.81A15.87,15.87,0,0,1,48.34,27c2.43-1.67,3.28-6.62,0-9.37,0,0-2.36,4.37-2.5,4.68a4.31,4.31,0,0,0,1,4.45A11,11,0,0,0,48.47,21.81Z"/><path class="cls-5" d="M40.63,29.13c-.05,2.89,1.48,5.5,4.5,5.95a5.64,5.64,0,0,0-2-4c1.31.65,2.07,2.78,2.53,3.29,1.63-4.27-3-4.88-4.84-6.74Z"/><path class="cls-6" d="M35.85,42c-.05,2.74,1.4,5.21,4.26,5.64a5.33,5.33,0,0,0-1.85-3.78c1.24.61,2,2.63,2.4,3.12,1.54-4-2.88-4.63-4.59-6.4Z"/><path class="cls-3" d="M56.31,26.79c.06,2.87-1.47,5.47-4.48,5.93a5.58,5.58,0,0,1,2-4c-1.31.64-2.06,2.77-2.52,3.27-1.63-4.25,3-4.86,4.82-6.72Z"/><path d="M115.56,37.65a4.62,4.62,0,0,1-1,3.12,3.41,3.41,0,0,1-2.73,1.11h-.67V39.66h.62c1,0,1.52-.65,1.52-1.95V26.5h2.22Z"/><path d="M130.56,41.88H128.2L127,38.67h-6.68l-1.17,3.21h-2.37l5.11-14c.38-1.07,1-1.61,1.73-1.61a1.81,1.81,0,0,1,1,.2,2.67,2.67,0,0,1,.9,1.41Zm-4.34-5.43-2.59-7-2.5,7Z"/><path d="M142.94,41.88H140l-5.67-6.56a1,1,0,0,1-.19-.67,1.51,1.51,0,0,1,.3-.88,1.54,1.54,0,0,1,1-.65h4a1.1,1.1,0,0,0,1.23-1.28v-2a1.26,1.26,0,0,0-1.12-1.13H134V41.88h-2.22V26.5h7.78a3.07,3.07,0,0,1,3.25,3.2v2.65a2.9,2.9,0,0,1-.89,2.08,2.79,2.79,0,0,1-2.05.91h-2.64Z"/><path d="M156.18,38a4.06,4.06,0,0,1-1,2.83,3.44,3.44,0,0,1-2.67,1.08h-7.42V26.5H153a3,3,0,0,1,2.29.94,3.66,3.66,0,0,1,.94,2.62ZM154,30.15a1.44,1.44,0,0,0-.37-1.1,1.89,1.89,0,0,0-1.25-.33h-5V39.66h5.09c1,0,1.54-.62,1.54-1.86Z"/><path d="M161.09,41.88h-2.22V26.5h2.22Zm1.29-18.5-1.69,2.45h-1.31l.9-2.45Z"/><path d="M174.6,40a2.17,2.17,0,0,1-.45,1.41,1.75,1.75,0,0,1-1.45.64,2.05,2.05,0,0,1-1.33-.36,3.11,3.11,0,0,1-.72-1.2L166,29.44V41.88h-2.22V28.65c0-1.52.61-2.28,1.84-2.28a2.11,2.11,0,0,1,1.21.4,2.52,2.52,0,0,1,.89,1.13l4.65,11.34V26.5h2.22Z"/><path d="M184.64,41.88h-2.22V26.5h2.22Z"/><path d="M198.14,40a2.22,2.22,0,0,1-.44,1.41,1.77,1.77,0,0,1-1.46.64,2,2,0,0,1-1.32-.36,3.23,3.23,0,0,1-.73-1.2l-4.64-11.09V41.88h-2.22V28.65c0-1.52.62-2.28,1.84-2.28a2.08,2.08,0,0,1,1.21.4,2.46,2.46,0,0,1,.89,1.13l4.65,11.34V26.5h2.22Z"/><path d="M211,28.72h-6.63a1.16,1.16,0,0,0-.95.48,1.74,1.74,0,0,0-.37,1.1v2.82H211v2.22h-7.9v6.54h-2.22V30.55a4.07,4.07,0,0,1,1-3.1,4.88,4.88,0,0,1,3.38-.95H211Z"/><path d="M223.42,41.88h-2.36l-1.2-3.21h-6.68L212,41.88h-2.37l5.11-14c.38-1.07,1-1.61,1.73-1.61a1.81,1.81,0,0,1,1,.2,2.67,2.67,0,0,1,.9,1.41Zm-4.34-5.43-2.59-7-2.5,7Z"/><path d="M235.49,40a2.17,2.17,0,0,1-.45,1.41,1.73,1.73,0,0,1-1.45.64,2,2,0,0,1-1.32-.36,3.23,3.23,0,0,1-.73-1.2L226.9,29.44V41.88h-2.22V28.65c0-1.52.62-2.28,1.84-2.28a2.08,2.08,0,0,1,1.21.4,2.46,2.46,0,0,1,.89,1.13l4.65,11.34V26.5h2.22Z"/><path d="M246.05,28.72h-3.34V41.88h-2.22V28.72h-3.31V26.5h8.87Z"/><path d="M249.94,41.88h-2.23V26.5h2.23Z"/><path d="M262.48,41.88h-6.22a3.43,3.43,0,0,1-2.66-1.06,4,4,0,0,1-1-2.81V26.5h2.22V38a1.7,1.7,0,0,0,.41,1.27,1.92,1.92,0,0,0,1.39.4h5.83Z"/><path class="cls-9" d="M128.37,60.43h-2.22V45h2.22Z"/><path class="cls-9" d="M141.88,58.59a2.17,2.17,0,0,1-.45,1.41,1.77,1.77,0,0,1-1.46.64,2,2,0,0,1-1.32-.36,3.23,3.23,0,0,1-.73-1.2L133.29,48V60.43h-2.23V47.2c0-1.52.62-2.28,1.84-2.28a2.08,2.08,0,0,1,1.21.4,2.46,2.46,0,0,1,.89,1.13l4.65,11.34V45h2.23Z"/><path class="cls-9" d="M155.59,56.63a4.41,4.41,0,0,1-.46,2.23,3,3,0,0,1-1.63,1.21l-.24.08,2.33,2.39h-3.06l-2.18-2.11H148q-3.42,0-3.42-3.44V48.72a4.31,4.31,0,0,1,.76-2.61,2.39,2.39,0,0,1,2-1h5.44a2.45,2.45,0,0,1,2.07,1.06,4.29,4.29,0,0,1,.73,2.59Zm-2.26.19V48.61a1.44,1.44,0,0,0-1.57-1.39H148.4a1.62,1.62,0,0,0-1.17.46,1.66,1.66,0,0,0-.46,1.23v7.87c0,.95.54,1.43,1.63,1.43h3.36A1.46,1.46,0,0,0,153.33,56.82Z"/><path class="cls-10" d="M169.25,56.65a4,4,0,0,1-.86,2.63,3.35,3.35,0,0,1-2.71,1.15h-3.83a3.35,3.35,0,0,1-2.45-1,3.65,3.65,0,0,1-1.12-2.75V45h2.23V56.37a2.13,2.13,0,0,0,.38,1.4,1.69,1.69,0,0,0,1.31.44h3.15a1.76,1.76,0,0,0,1.3-.39A1.84,1.84,0,0,0,167,56.5V45h2.23Z"/><path class="cls-10" d="M174.16,60.43h-2.22V45h2.22Z"/><path class="cls-10" d="M187,47.27h-6.5a1.39,1.39,0,0,0-1,.41,1.37,1.37,0,0,0-.43,1v2.88h7.87v2.22h-7.87v3c0,.93.82,1.4,2.46,1.4h5.37v2.22h-6c-2.72,0-4.08-1.38-4.08-4.12V48.89a3.69,3.69,0,0,1,1.06-2.9,5.09,5.09,0,0,1,3.43-1H187Z"/><path class="cls-11" d="M197.21,47.27h-3.33V60.43h-2.22V47.27h-3.31V45h8.86Z"/><path class="cls-11" d="M209.84,56.65a4,4,0,0,1-.85,2.63,3.36,3.36,0,0,1-2.71,1.15h-3.83a3.39,3.39,0,0,1-2.46-1,3.68,3.68,0,0,1-1.11-2.75V45h2.22V56.37a2.07,2.07,0,0,0,.39,1.4,1.68,1.68,0,0,0,1.31.44H206a1.77,1.77,0,0,0,1.3-.39,1.84,1.84,0,0,0,.37-1.32V45h2.22Z"/><path class="cls-11" d="M223.6,56.52a4,4,0,0,1-1,2.83A3.44,3.44,0,0,1,220,60.43h-7.41V45h7.84a3,3,0,0,1,2.28,1,3.66,3.66,0,0,1,.94,2.62Zm-2.22-7.82a1.4,1.4,0,0,0-.37-1.1,1.89,1.89,0,0,0-1.25-.33h-5V58.21h5.08c1,0,1.54-.62,1.54-1.86Z"/><path class="cls-12" d="M236.4,47.27h-6.49a1.39,1.39,0,0,0-1,.41,1.36,1.36,0,0,0-.42,1v2.88h7.86v2.22h-7.86v3c0,.93.82,1.4,2.45,1.4h5.37v2.22h-6c-2.72,0-4.08-1.38-4.08-4.12V48.89a3.69,3.69,0,0,1,1-2.9,5.09,5.09,0,0,1,3.43-1h5.62Z"/><path class="cls-12" d="M248.3,47.27h-6.57c-.76,0-1.14.33-1.14,1v2.11c0,.87.48,1.31,1.44,1.31h2.7a3.74,3.74,0,0,1,2.46.86,2.64,2.64,0,0,1,1,2.09v2.43a3.24,3.24,0,0,1-1,2.41,3.4,3.4,0,0,1-2.49,1h-6.37V58.21h6.37a1.21,1.21,0,0,0,1-.43,1.31,1.31,0,0,0,.3-.87V55c0-.83-.47-1.25-1.4-1.25h-3.19a2.8,2.8,0,0,1-2.16-1,3.14,3.14,0,0,1-.88-2.19V48.63a4.36,4.36,0,0,1,.66-2.48A2.21,2.21,0,0,1,241,45.07l7.33,0Z"/></g></g></svg>