<svg xmlns="http://www.w3.org/2000/svg" viewBox="0 0 89.85 61.26"><defs><style>.cls-1{fill:#365d96;}.cls-2{fill:#fa6541;}</style></defs><g id="Capa_2" data-name="Capa 2"><g id="Capa_1-2" data-name="Capa 1"><path class="cls-1" d="M53.37,38.29a15.32,15.32,0,1,0-16.89,0,24.51,24.51,0,0,0-16.06,23H24.5a20.42,20.42,0,0,1,40.84,0h4.09A24.51,24.51,0,0,0,53.37,38.29ZM33.69,25.52A11.23,11.23,0,1,1,44.92,36.76,11.25,11.25,0,0,1,33.69,25.52Z"/><path class="cls-2" d="M73.79,28.08a15.3,15.3,0,1,0-19-23.84,15.73,15.73,0,0,0-2.62,3.3,19.79,19.79,0,0,1,3.61,1.92,11.2,11.2,0,1,1,9.56,17.09c-.36,0-.71,0-1.07-.06a19.24,19.24,0,0,1-.68,4.26c.58-.05,1.16-.12,1.75-.12a19.77,19.77,0,0,1,2.45.16,20.43,20.43,0,0,1,18,20.26h4.09A24.51,24.51,0,0,0,73.79,28.08Z"/><path class="cls-2" d="M24.5,30.63c.6,0,1.18.07,1.76.12a19.84,19.84,0,0,1-.69-4.26c-.35,0-.71.06-1.07.06A11.23,11.23,0,1,1,34.07,9.46a19.47,19.47,0,0,1,3.61-1.92,15.73,15.73,0,0,0-2.62-3.3,15.3,15.3,0,1,0-19,23.84A24.51,24.51,0,0,0,0,51.05H4.08a20.44,20.44,0,0,1,18-20.26A19.61,19.61,0,0,1,24.5,30.63Z"/></g></g></svg>