<?xml version="1.0" encoding="utf-8"?>
<!-- Generator: Adobe Illustrator 25.2.3, SVG Export Plug-In . SVG Version: 6.00 Build 0)  -->
<svg version="1.1" id="Capa_1" xmlns="http://www.w3.org/2000/svg" xmlns:xlink="http://www.w3.org/1999/xlink" x="0px" y="0px"
	 viewBox="0 0 28 28" style="enable-background:new 0 0 28 28;" xml:space="preserve">
<style type="text/css">
	.st0{fill:#666666;}
</style>
<desc>Created with Sketch.</desc>
<g id="_xD83D__xDD0D_-Product-Icons">
	<g id="ic_fluent_people_28_filled">
		<path id="_xD83C__xDFA8_-Color" class="st0" d="M4,16l11,0c1.1,0,1.9,0.8,2,1.9l0,0.1v2.5c0,4.2-4.3,5.5-7.5,5.5
			c-3.1,0-7.3-1.2-7.5-5.3l0-0.2V18c0-1.1,0.8-1.9,1.9-2L4,16z M17.2,16l6.8,0c1.1,0,1.9,0.8,2,1.9l0,0.1v2c0,3.8-3.4,5-6,5
			c-1.1,0-2.3-0.2-3.3-0.7c0.8-0.9,1.2-2,1.3-3.5l0-0.3V18c0-0.7-0.2-1.3-0.7-1.9L17.2,16l6.8,0L17.2,16z M9.5,3
			c3,0,5.5,2.5,5.5,5.5S12.5,14,9.5,14S4,11.5,4,8.5S6.5,3,9.5,3z M20.5,5C23,5,25,7,25,9.5S23,14,20.5,14S16,12,16,9.5S18,5,20.5,5
			z"/>
	</g>
</g>
</svg>
